<svg width="20" height="20" viewBox="0 0 20 20" fill="none" xmlns="http://www.w3.org/2000/svg">
<rect width="20" height="20" rx="10" fill="#928B6A"/>
<path d="M12.94 14.6155C12.5378 14.6155 11.9728 14.47 11.1268 13.9973C10.098 13.4204 9.30221 12.8878 8.27899 11.8672C7.29244 10.8813 6.81235 10.2429 6.14043 9.02026C5.38136 7.63975 5.51076 6.91612 5.6554 6.60684C5.82765 6.23719 6.08192 6.01611 6.41056 5.79667C6.59723 5.67437 6.79477 5.56953 7.00068 5.48348C7.02128 5.47462 7.04044 5.46617 7.05755 5.45855C7.15954 5.4126 7.31407 5.34316 7.50982 5.41734C7.64045 5.46637 7.75707 5.56672 7.93963 5.74701C8.31402 6.11625 8.82563 6.93858 9.01437 7.34243C9.14109 7.61461 9.22495 7.79429 9.22515 7.9958C9.22515 8.23172 9.10647 8.41366 8.96244 8.61002C8.93545 8.64691 8.90867 8.68214 8.8827 8.71635C8.7259 8.92239 8.69149 8.98194 8.71416 9.08826C8.76011 9.30193 9.10276 9.93799 9.66589 10.4999C10.229 11.0618 10.8467 11.3828 11.0612 11.4285C11.1721 11.4522 11.2329 11.4164 11.4455 11.254C11.476 11.2307 11.5073 11.2066 11.5401 11.1825C11.7597 11.0191 11.9332 10.9035 12.1636 10.9035H12.1648C12.3653 10.9035 12.5369 10.9905 12.8213 11.1339C13.1922 11.321 14.0392 11.826 14.4107 12.2008C14.5914 12.3829 14.6922 12.4992 14.7414 12.6296C14.8156 12.8259 14.7458 12.9799 14.7002 13.0829C14.6926 13.1 14.6841 13.1187 14.6753 13.1395C14.5886 13.3451 14.4831 13.5422 14.3602 13.7284C14.1412 14.056 13.9193 14.3097 13.5488 14.4821C13.3586 14.5721 13.1504 14.6177 12.94 14.6155Z" fill="#FFFBEB"/>
</svg>
