<svg width="27" height="32" viewBox="0 0 27 32" fill="none" xmlns="http://www.w3.org/2000/svg">
<path d="M5.5 9.14294V1.14294L13.5 5.71437L21.5 1.14294V9.14294C21.5 13.5612 17.9183 17.1429 13.5 17.1429C9.08171 17.1429 5.5 13.5612 5.5 9.14294Z" stroke="#241A1B" stroke-width="1.71429" stroke-linecap="round" stroke-linejoin="round"/>
<path d="M13.5 17.1429V30.8572" stroke="#241A1B" stroke-width="1.71429" stroke-linecap="round" stroke-linejoin="round"/>
<path d="M13.5 28.5715V30.8572H19.2143C23.0015 30.8572 26.0714 27.7873 26.0714 24.0001V22.8572C26.0714 22.226 25.5597 21.7144 24.9286 21.7144H20.3571C16.5701 21.7144 13.5 24.7843 13.5 28.5715Z" stroke="#241A1B" stroke-width="1.71429" stroke-linecap="round" stroke-linejoin="round"/>
<path d="M0.928711 22.8572V24.0001C0.928711 27.7873 3.99877 30.8572 7.78585 30.8572H13.5001V28.5715C13.5001 24.7843 10.4301 21.7144 6.643 21.7144H2.07157C1.44039 21.7144 0.928711 22.226 0.928711 22.8572Z" stroke="#241A1B" stroke-width="1.71429" stroke-linecap="round" stroke-linejoin="round"/>
</svg>
