<svg width="27" height="32" viewBox="0 0 27 32" fill="none" xmlns="http://www.w3.org/2000/svg">
<path d="M23.5316 13.8943C23.068 14.2978 22.5272 14.6029 21.9421 14.791C21.3572 14.9791 20.74 15.0464 20.1281 14.9887C19.5162 14.931 18.9225 14.7496 18.3829 14.4554C17.8434 14.1612 17.3692 13.7605 16.9892 13.2775C16.6093 12.7944 16.3314 12.2392 16.1726 11.6455C16.0138 11.0519 15.9773 10.4321 16.0653 9.82387C16.1533 9.21565 16.3641 8.63167 16.6847 8.10737C17.0053 7.58307 17.4291 7.12943 17.9304 6.77393C19.8806 5.23194 26.0712 6.13898 26.0712 6.13898C26.0712 6.13898 25.5044 12.3523 23.5316 13.8943Z" stroke="#241A1B" stroke-width="1.71429" stroke-linecap="round" stroke-linejoin="round"/>
<path d="M10.9766 10.983C12.7333 13.7901 13.5005 17.0705 13.5005 20.5716C13.5005 18.4048 15.0556 14.774 16.9436 13.2176" stroke="#241A1B" stroke-width="1.71429" stroke-linecap="round" stroke-linejoin="round"/>
<path d="M3.01838 11.3537C4.12864 12.3073 5.55813 12.8063 7.02062 12.7509C8.48313 12.6954 9.87075 12.0896 10.9056 11.0547C11.9405 10.0198 12.5463 8.63223 12.6018 7.16972C12.6572 5.70723 12.1582 4.27774 11.2046 3.16748C8.93694 0.922525 0.932163 1.14929 0.932163 1.14929C0.932163 1.14929 0.750746 9.08604 3.01838 11.3537Z" stroke="#241A1B" stroke-width="1.71429" stroke-linecap="round" stroke-linejoin="round"/>
<path d="M5.10267 29.0672L3.52377 21.9623C3.36517 21.2485 3.90828 20.5715 4.63943 20.5715H22.3615C23.0927 20.5715 23.6358 21.2485 23.4771 21.9623L21.8981 29.0672C21.6657 30.1132 20.7381 30.8572 19.6669 30.8572H7.33397C6.26265 30.8572 5.33509 30.1132 5.10267 29.0672Z" stroke="#241A1B" stroke-width="1.71429" stroke-linecap="round" stroke-linejoin="round"/>
</svg>
