<svg width="21" height="21" viewBox="0 0 21 21" fill="none" xmlns="http://www.w3.org/2000/svg">
<g clip-path="url(#clip0_183_539)">
<path d="M14.6857 15.5084C13.7293 15.5084 12.9625 16.2752 12.9625 17.2316C12.9625 17.6886 13.144 18.1269 13.4672 18.45C13.7904 18.7732 14.2286 18.9547 14.6857 18.9547C15.1427 18.9547 15.581 18.7732 15.9041 18.45C16.2273 18.1269 16.4088 17.6886 16.4088 17.2316C16.4088 16.7746 16.2273 16.3363 15.9041 16.0131C15.581 15.69 15.1427 15.5084 14.6857 15.5084ZM0.900391 1.72314V3.4463H2.62355L5.72523 9.98569L4.55349 12.0966C4.42425 12.3378 4.34671 12.6221 4.34671 12.9237C4.34671 13.3807 4.52825 13.819 4.85141 14.1421C5.17456 14.4653 5.61285 14.6468 6.06987 14.6468H16.4088V12.9237H6.43173C6.3746 12.9237 6.31982 12.901 6.27942 12.8606C6.23903 12.8202 6.21633 12.7654 6.21633 12.7083C6.21633 12.6652 6.22495 12.6307 6.24218 12.6049L7.0176 11.2005H13.4364C14.0826 11.2005 14.6512 10.8387 14.9441 10.3131L18.0286 4.73867C18.0889 4.60082 18.132 4.45435 18.132 4.30788C18.132 4.07938 18.0412 3.86023 17.8796 3.69865C17.718 3.53708 17.4989 3.4463 17.2704 3.4463H4.52764L3.71775 1.72314M6.06987 15.5084C5.11351 15.5084 4.34671 16.2752 4.34671 17.2316C4.34671 17.6886 4.52825 18.1269 4.85141 18.45C5.17456 18.7732 5.61285 18.9547 6.06987 18.9547C6.52688 18.9547 6.96517 18.7732 7.28832 18.45C7.61148 18.1269 7.79302 17.6886 7.79302 17.2316C7.79302 16.7746 7.61148 16.3363 7.28832 16.0131C6.96517 15.69 6.52688 15.5084 6.06987 15.5084Z" fill="#4E4934"/>
</g>
<defs>
<clipPath id="clip0_183_539">
<rect width="20.6779" height="20.6779" fill="white" transform="translate(0.0390625)"/>
</clipPath>
</defs>
</svg>
