<svg width="21" height="21" viewBox="0 0 21 21" fill="none" xmlns="http://www.w3.org/2000/svg">
<path d="M10.3394 1.75757C5.60074 1.75757 1.72363 5.62606 1.72363 10.3906C1.72363 14.6985 4.87701 18.274 8.99536 18.9202V12.8892H6.80695V10.3906H8.99536V8.4865C8.99536 6.32394 10.2791 5.13496 12.2521 5.13496C13.1912 5.13496 14.1734 5.29866 14.1734 5.29866V7.42676H13.0879C12.0195 7.42676 11.6835 8.09017 11.6835 8.77082V10.3906H14.0787L13.691 12.8892H11.6835V18.9202C13.7137 18.5996 15.5625 17.5637 16.896 15.9995C18.2295 14.4354 18.9598 12.446 18.9552 10.3906C18.9552 5.62606 15.0781 1.75757 10.3394 1.75757Z" fill="#4E4934"/>
</svg>
