<svg width="33" height="32" viewBox="0 0 33 32" fill="none" xmlns="http://www.w3.org/2000/svg">
<path d="M18.4801 16.3234C18.4721 16.7458 18.3388 17.1563 18.0972 17.5028C17.8556 17.8494 17.5166 18.1164 17.123 18.27C16.7295 18.4236 16.2992 18.457 15.8867 18.3658C15.4742 18.2746 15.0981 18.063 14.806 17.7578C14.5139 17.4526 14.319 17.0675 14.246 16.6514C14.173 16.2353 14.2251 15.8069 14.3959 15.4205C14.5666 15.0341 14.8483 14.7071 15.2051 14.4809C15.5619 14.2547 15.9778 14.1396 16.4001 14.1501C16.9614 14.1709 17.4924 14.4094 17.8807 14.8151C18.269 15.2208 18.484 15.7618 18.4801 16.3234Z" fill="#928B6A"/>
<path d="M20.017 9.64453H12.7836C12.0679 9.64453 11.3815 9.92885 10.8754 10.435C10.3693 10.9411 10.085 11.6275 10.085 12.3432V19.7392C10.085 20.0936 10.1548 20.4445 10.2904 20.7719C10.426 21.0993 10.6248 21.3968 10.8754 21.6474C11.126 21.898 11.4235 22.0968 11.7509 22.2324C12.0783 22.3681 12.4292 22.4379 12.7836 22.4379H20.017C20.3714 22.4379 20.7223 22.3681 21.0497 22.2324C21.3771 22.0968 21.6746 21.898 21.9252 21.6474C22.1758 21.3968 22.3746 21.0993 22.5102 20.7719C22.6458 20.4445 22.7156 20.0936 22.7156 19.7392V12.3565C22.717 12.0011 22.6483 11.6489 22.5133 11.3201C22.3784 10.9913 22.1798 10.6924 21.9291 10.4404C21.6784 10.1885 21.3805 9.98852 21.0524 9.85194C20.7242 9.71536 20.3724 9.64488 20.017 9.64453ZM16.3996 19.9419C15.6836 19.958 14.979 19.7605 14.3757 19.3744C13.7724 18.9884 13.2978 18.4313 13.0125 17.7743C12.7273 17.1174 12.6442 16.3903 12.7739 15.6859C12.9037 14.9816 13.2403 14.3318 13.741 13.8196C14.2416 13.3074 14.8835 12.956 15.5847 12.8102C16.286 12.6644 17.0147 12.7309 17.678 13.0011C18.3413 13.2714 18.9091 13.7331 19.3088 14.3274C19.7085 14.9217 19.9221 15.6216 19.9223 16.3379C19.9281 16.8059 19.8415 17.2706 19.6676 17.7051C19.4936 18.1397 19.2356 18.5357 18.9084 18.8705C18.5812 19.2052 18.1912 19.4722 17.7607 19.656C17.3302 19.8399 16.8677 19.937 16.3996 19.9419ZM20.3143 12.7352C20.2263 12.7352 20.1392 12.7177 20.0581 12.6836C19.977 12.6495 19.9035 12.5996 19.8419 12.5368C19.7803 12.474 19.7319 12.3995 19.6994 12.3177C19.667 12.2359 19.6512 12.1485 19.653 12.0605C19.653 11.8816 19.724 11.71 19.8506 11.5835C19.9771 11.4569 20.1487 11.3859 20.3276 11.3859C20.5066 11.3859 20.6782 11.4569 20.8047 11.5835C20.9312 11.71 21.0023 11.8816 21.0023 12.0605C21.0049 12.1558 20.987 12.2505 20.9496 12.3381C20.9123 12.4258 20.8564 12.5044 20.7859 12.5684C20.7154 12.6325 20.6318 12.6806 20.541 12.7094C20.4502 12.7381 20.3542 12.747 20.2596 12.7352H20.3143Z" fill="#928B6A"/>
<path d="M16.3992 2.66716C12.863 2.64948 9.46456 4.03728 6.95157 6.52526C4.43859 9.01324 3.01687 12.3976 2.99919 15.9338C2.98151 19.47 4.36931 22.8685 6.85729 25.3814C9.34528 27.8944 12.7296 29.3161 16.2659 29.3338C18.0168 29.3426 19.7524 29.0064 21.3734 28.3444C22.9944 27.6824 24.4692 26.7076 25.7135 25.4757C26.9578 24.2438 27.9473 22.7789 28.6254 21.1645C29.3036 19.5502 29.6571 17.8181 29.6659 16.0672C29.6746 14.3162 29.3384 12.5807 28.6764 10.9596C28.0145 9.33861 27.0397 7.86385 25.8078 6.61954C24.5758 5.37524 23.1109 4.38576 21.4966 3.70761C19.8822 3.02946 18.1501 2.67591 16.3992 2.66716ZM24.4965 19.6032C24.5002 20.2013 24.3852 20.7943 24.158 21.3477C23.9309 21.9011 23.5961 22.4038 23.1732 22.8269C22.7503 23.2499 22.2476 23.5848 21.6943 23.8121C21.141 24.0395 20.548 24.1547 19.9499 24.1512H12.8512C12.253 24.1549 11.66 24.0398 11.1067 23.8127C10.5533 23.5855 10.0505 23.2508 9.62746 22.8278C9.20441 22.4049 8.86952 21.9022 8.6422 21.3489C8.41488 20.7956 8.29965 20.2027 8.30319 19.6045V12.5045C8.29947 11.9063 8.41453 11.3133 8.64169 10.76C8.86885 10.2066 9.20359 9.70381 9.62651 9.28076C10.0494 8.85771 10.5521 8.52282 11.1054 8.2955C11.6587 8.06818 12.2517 7.95295 12.8499 7.95649H19.9499C20.5479 7.95295 21.1407 8.06814 21.694 8.29538C22.2472 8.52262 22.7498 8.85739 23.1727 9.28029C23.5956 9.7032 23.9304 10.2058 24.1576 10.759C24.3849 11.3123 24.5001 11.9051 24.4965 12.5032V19.6032Z" fill="#928B6A"/>
</svg>
