<svg width="22" height="21" viewBox="0 0 22 21" fill="none" xmlns="http://www.w3.org/2000/svg">
<path d="M11.5801 1.72314C12.5494 1.72573 13.0414 1.7309 13.4661 1.74296L13.6333 1.74899C13.8263 1.75588 14.0167 1.7645 14.2467 1.77484C15.1634 1.81792 15.7889 1.96266 16.3378 2.17547C16.9064 2.39431 17.3854 2.6907 17.8645 3.16887C18.3026 3.59957 18.6416 4.12056 18.8579 4.69559C19.0707 5.24442 19.2154 5.86992 19.2585 6.78751C19.2688 7.01669 19.2775 7.20709 19.2844 7.40095L19.2895 7.5681C19.3025 7.99199 19.3076 8.48395 19.3093 9.45323L19.3102 10.096V11.2246C19.3123 11.8531 19.3057 12.4815 19.2904 13.1098L19.2852 13.2769C19.2783 13.4708 19.2697 13.6612 19.2594 13.8904C19.2163 14.8079 19.0698 15.4326 18.8579 15.9823C18.6422 16.5576 18.3031 17.0787 17.8645 17.509C17.4337 17.947 16.9127 18.2859 16.3378 18.5024C15.7889 18.7152 15.1634 18.86 14.2467 18.903C14.0423 18.9127 13.8378 18.9213 13.6333 18.9289L13.4661 18.934C13.0414 18.9461 12.5494 18.9521 11.5801 18.9539L10.9374 18.9547H9.80957C9.18084 18.9569 8.55212 18.9503 7.92357 18.9349L7.75643 18.9297C7.5519 18.922 7.34741 18.9131 7.14298 18.903C6.22626 18.86 5.60076 18.7152 5.05107 18.5024C4.47611 18.2865 3.95533 17.9474 3.52521 17.509C3.08671 17.0785 2.7474 16.5574 2.53095 15.9823C2.31814 15.4334 2.1734 14.8079 2.13032 13.8904C2.12072 13.6859 2.1121 13.4814 2.10447 13.2769L2.10016 13.1098C2.08428 12.4815 2.0771 11.8531 2.07862 11.2246V9.45323C2.07622 8.8248 2.08254 8.19636 2.09758 7.5681L2.10361 7.40095C2.1105 7.20709 2.11912 7.01669 2.12946 6.78751C2.17253 5.86992 2.31728 5.24528 2.53009 4.69559C2.74644 4.11997 3.08643 3.59882 3.52608 3.16887C3.95608 2.73074 4.47652 2.39172 5.05107 2.17547C5.60076 1.96266 6.2254 1.81792 7.14298 1.77484C7.37216 1.7645 7.56343 1.75588 7.75643 1.74899L7.92357 1.74382C8.55183 1.72851 9.18027 1.72191 9.80871 1.72401L11.5801 1.72314ZM10.6944 6.03104C9.55189 6.03104 8.45616 6.48491 7.64827 7.29279C6.84038 8.10068 6.38652 9.19641 6.38652 10.3389C6.38652 11.4815 6.84038 12.5772 7.64827 13.3851C8.45616 14.193 9.55189 14.6468 10.6944 14.6468C11.8369 14.6468 12.9327 14.193 13.7406 13.3851C14.5484 12.5772 15.0023 11.4815 15.0023 10.3389C15.0023 9.19641 14.5484 8.10068 13.7406 7.29279C12.9327 6.48491 11.8369 6.03104 10.6944 6.03104ZM10.6944 7.7542C11.0338 7.75414 11.37 7.82094 11.6836 7.95078C11.9972 8.08063 12.2822 8.27097 12.5222 8.51094C12.7623 8.75092 12.9527 9.03583 13.0827 9.3494C13.2126 9.66297 13.2795 9.99907 13.2796 10.3385C13.2796 10.6779 13.2128 11.0141 13.083 11.3277C12.9532 11.6413 12.7628 11.9263 12.5228 12.1663C12.2829 12.4064 11.998 12.5968 11.6844 12.7268C11.3708 12.8567 11.0347 12.9236 10.6953 12.9237C10.0098 12.9237 9.35232 12.6514 8.86759 12.1666C8.38286 11.6819 8.11054 11.0244 8.11054 10.3389C8.11054 9.65342 8.38286 8.99598 8.86759 8.51125C9.35232 8.02652 10.0098 7.7542 10.6953 7.7542M15.2186 4.73867C14.9329 4.73867 14.659 4.85214 14.457 5.05411C14.2551 5.25608 14.1416 5.53001 14.1416 5.81564C14.1416 6.10128 14.2551 6.37521 14.457 6.57718C14.659 6.77915 14.9329 6.89262 15.2186 6.89262C15.5042 6.89262 15.7781 6.77915 15.9801 6.57718C16.1821 6.37521 16.2955 6.10128 16.2955 5.81564C16.2955 5.53001 16.1821 5.25608 15.9801 5.05411C15.7781 4.85214 15.5042 4.73867 15.2186 4.73867Z" fill="#4E4934"/>
</svg>
