<svg width="27" height="28" viewBox="0 0 27 28" fill="none" xmlns="http://www.w3.org/2000/svg">
<g clip-path="url(#clip0_183_553)">
<path d="M13.3332 1.2002C6.26387 1.2002 0.533203 6.93086 0.533203 14.0002C0.533203 21.0695 6.26387 26.8002 13.3332 26.8002C20.4025 26.8002 26.1332 21.0695 26.1332 14.0002C26.1332 6.93086 20.4025 1.2002 13.3332 1.2002ZM10.1999 19.3055H7.60787V10.9642H10.1999V19.3055ZM8.88787 9.94019C8.0692 9.94019 7.53987 9.36019 7.53987 8.64286C7.53987 7.91086 8.0852 7.3482 8.9212 7.3482C9.7572 7.3482 10.2692 7.91086 10.2852 8.64286C10.2852 9.36019 9.7572 9.94019 8.88787 9.94019ZM19.6665 19.3055H17.0745V14.6829C17.0745 13.6069 16.6985 12.8762 15.7612 12.8762C15.0452 12.8762 14.6199 13.3709 14.4319 13.8469C14.3625 14.0162 14.3452 14.2562 14.3452 14.4949V19.3042H11.7519V13.6242C11.7519 12.5829 11.7185 11.7122 11.6839 10.9629H13.9359L14.0545 12.1215H14.1065C14.4479 11.5775 15.2839 10.7749 16.6825 10.7749C18.3879 10.7749 19.6665 11.9175 19.6665 14.3735V19.3055Z" fill="#928B6A"/>
</g>
<defs>
<clipPath id="clip0_183_553">
<rect width="26.6667" height="26.6667" fill="white" transform="translate(0 0.666992)"/>
</clipPath>
</defs>
</svg>
