<svg width="20" height="20" viewBox="0 0 20 20" fill="none" xmlns="http://www.w3.org/2000/svg">
<rect width="20" height="20" rx="10" fill="#928B6A"/>
<path d="M9.99346 9.76938C9.68745 9.76938 9.39396 9.64782 9.17757 9.43143C8.96118 9.21504 8.83962 8.92155 8.83962 8.61553C8.83962 8.30952 8.96118 8.01603 9.17757 7.79964C9.39396 7.58325 9.68745 7.46169 9.99346 7.46169C10.2995 7.46169 10.593 7.58325 10.8094 7.79964C11.0257 8.01603 11.1473 8.30952 11.1473 8.61553C11.1473 8.76706 11.1175 8.9171 11.0595 9.05709C11.0015 9.19708 10.9165 9.32428 10.8094 9.43143C10.7022 9.53857 10.575 9.62356 10.435 9.68155C10.295 9.73954 10.145 9.76938 9.99346 9.76938ZM9.99346 5.38477C9.13661 5.38477 8.31485 5.72515 7.70897 6.33104C7.10308 6.93692 6.7627 7.75868 6.7627 8.61553C6.7627 11.0386 9.99346 14.6155 9.99346 14.6155C9.99346 14.6155 13.2242 11.0386 13.2242 8.61553C13.2242 7.75868 12.8839 6.93692 12.278 6.33104C11.6721 5.72515 10.8503 5.38477 9.99346 5.38477Z" fill="#FFFBEB"/>
</svg>
