<svg width="22" height="21" viewBox="0 0 22 21" fill="none" xmlns="http://www.w3.org/2000/svg">
<path d="M9.08366 2.58472C10.5689 2.58472 11.9934 3.17474 13.0436 4.225C14.0939 5.27525 14.6839 6.6997 14.6839 8.18498C14.6839 9.57212 14.1756 10.8473 13.3399 11.8295L13.5725 12.0621H14.2531L18.561 16.37L17.2687 17.6623L12.9608 13.3545V12.6738L12.7281 12.4412C11.7118 13.3083 10.4197 13.7849 9.08366 13.7852C7.59838 13.7852 6.17393 13.1952 5.12368 12.145C4.07342 11.0947 3.4834 9.67026 3.4834 8.18498C3.4834 6.6997 4.07342 5.27525 5.12368 4.225C6.17393 3.17474 7.59838 2.58472 9.08366 2.58472ZM9.08366 4.30787C6.92971 4.30787 5.20656 6.03103 5.20656 8.18498C5.20656 10.3389 6.92971 12.0621 9.08366 12.0621C11.2376 12.0621 12.9608 10.3389 12.9608 8.18498C12.9608 6.03103 11.2376 4.30787 9.08366 4.30787Z" fill="#4E4934"/>
</svg>
