<svg width="22" height="21" viewBox="0 0 22 21" fill="none" xmlns="http://www.w3.org/2000/svg">
<path d="M11.0504 1.72314C15.8137 1.72314 19.6662 5.57563 19.6662 10.3389C19.6662 15.1022 15.8137 18.9547 11.0504 18.9547C6.28706 18.9547 2.43457 15.1022 2.43457 10.3389C2.43457 5.57563 6.28706 1.72314 11.0504 1.72314ZM9.4749 14.8807C13.2905 14.8807 15.3829 11.7175 15.3829 8.97272V8.70193C15.789 8.40654 16.146 8.03729 16.4168 7.61881C16.0475 7.77881 15.6413 7.88959 15.2229 7.95113C15.6537 7.69266 15.986 7.28648 16.1337 6.80646C15.7275 7.04032 15.2844 7.21263 14.8167 7.3111C14.4351 6.90493 13.8936 6.65876 13.3028 6.65876C12.1581 6.65876 11.2227 7.59419 11.2227 8.73886C11.2227 8.89887 11.235 9.05887 11.2842 9.20657C9.56106 9.12042 8.02253 8.29576 7.00094 7.04032C6.82862 7.34803 6.71785 7.70496 6.71785 8.08652C6.71785 8.8004 7.0871 9.44043 7.64097 9.80968C7.29634 9.80968 6.97632 9.71121 6.70554 9.55121V9.57582C6.70554 10.5851 7.41942 11.4221 8.36716 11.619C8.19484 11.6682 8.01022 11.6928 7.82559 11.6928C7.6902 11.6928 7.56712 11.6805 7.43173 11.6559C7.6902 12.4806 8.46562 13.0837 9.36413 13.096C8.65025 13.6499 7.75174 13.9822 6.77939 13.9822C6.60707 13.9822 6.44707 13.9822 6.28706 13.9576C7.19787 14.5484 8.29331 14.893 9.46259 14.893" fill="#4E4934"/>
</svg>
