<svg width="21" height="21" viewBox="0 0 21 21" fill="none" xmlns="http://www.w3.org/2000/svg">
<path d="M10.6602 3.44629C11.5742 3.44629 12.4508 3.80938 13.0971 4.45569C13.7434 5.102 14.1065 5.97859 14.1065 6.89261C14.1065 7.80662 13.7434 8.68321 13.0971 9.32952C12.4508 9.97583 11.5742 10.3389 10.6602 10.3389C9.74619 10.3389 8.86961 9.97583 8.2233 9.32952C7.57699 8.68321 7.21389 7.80662 7.21389 6.89261C7.21389 5.97859 7.57699 5.102 8.2233 4.45569C8.86961 3.80938 9.74619 3.44629 10.6602 3.44629ZM10.6602 12.0621C14.4684 12.0621 17.5528 13.6043 17.5528 15.5084V17.2316H3.76758V15.5084C3.76758 13.6043 6.85203 12.0621 10.6602 12.0621Z" fill="#4E4934"/>
</svg>
