<svg width="28" height="28" viewBox="0 0 28 28" fill="none" xmlns="http://www.w3.org/2000/svg">
<path d="M16.1375 13.7775L13.1429 12.3802C12.8815 12.2589 12.6669 12.3949 12.6669 12.6842V15.3162C12.6669 15.6055 12.8815 15.7415 13.1429 15.6202L16.1362 14.2229C16.3989 14.1002 16.3989 13.9002 16.1375 13.7775ZM14.0002 1.2002C6.93086 1.2002 1.2002 6.93086 1.2002 14.0002C1.2002 21.0695 6.93086 26.8002 14.0002 26.8002C21.0695 26.8002 26.8002 21.0695 26.8002 14.0002C26.8002 6.93086 21.0695 1.2002 14.0002 1.2002ZM14.0002 19.2002C7.4482 19.2002 7.33353 18.6095 7.33353 14.0002C7.33353 9.39086 7.4482 8.80019 14.0002 8.80019C20.5522 8.80019 20.6669 9.39086 20.6669 14.0002C20.6669 18.6095 20.5522 19.2002 14.0002 19.2002Z" fill="#928B6A"/>
</svg>
